<?xml version="1.0" encoding="UTF-8" standalone="no"?><!DOCTYPE svg PUBLIC "-//W3C//DTD SVG 1.1//EN" "http://www.w3.org/Graphics/SVG/1.1/DTD/svg11.dtd"><svg width="100%" height="100%" viewBox="0 0 311 208" version="1.1" xmlns="http://www.w3.org/2000/svg" xmlns:xlink="http://www.w3.org/1999/xlink" xml:space="preserve" xmlns:serif="http://www.serif.com/" style="fill-rule:evenodd;clip-rule:evenodd;stroke-linejoin:round;stroke-miterlimit:1.41421;"><path d="M64.577,109.352l-0.155,0l-7.861,-26.23l3.58,0c0.623,0 0.934,-0.311 0.934,-0.934l0,-3.347c0,-0.622 -0.311,-0.933 -0.934,-0.934l-12.638,0c-0.949,-5.107 -1.387,-9.912 -1.438,-14.213c-0.235,-19.847 -9.634,-36.183 -12.377,-40.385c-2.742,-4.203 -33.688,-10.474 -33.688,-10.474c4.634,-5.026 32.235,-0.145 32.235,-0.145c0,0 8.83,-6.041 23.522,-10.862c14.692,-4.821 33.885,0.994 43.928,4.804c11.724,4.446 32.154,20.541 36.535,25.466c4.381,4.925 8.808,7.968 13.087,9.324c16.02,5.077 43.07,16.549 46.933,18.783c3.864,2.234 16.956,8.625 33.469,5.243c23.235,-4.758 74.185,-42.41 74.185,-42.41c0,0 -20.959,16.276 -15.886,15.175c5.073,-1.1 22.35,-10.006 22.35,-10.006c0,0 -9.292,7.542 -12.94,10.381c-0.593,0.349 -1.045,0.655 -1.296,0.897c-0.446,0.428 0.144,0.001 1.296,-0.897c3.783,-2.222 13.318,-6.166 13.318,-6.166l-29.009,19.355l16.272,-4.277c0.382,-0.119 0.738,-0.213 1.067,-0.281l-1.067,0.281c-11.749,3.651 -47.408,30.571 -47.408,30.571c0,0 13.945,2.133 10.142,1.589c-3.803,-0.543 -15.568,13.148 -15.568,13.148c0,0 6.111,0.703 10.135,1.066c-6.757,1.966 -17.907,15.381 -17.907,15.381l-3.776,10.838c13.364,10.006 13.367,20.798 13.367,20.798c-12.948,-8.828 -28.776,-8.665 -28.776,-8.665c-20.723,19.657 -42.522,25.807 -59.567,26.999l5.071,32.151c0,0 1.4,5.667 4.071,8.087c1.116,1.011 7.061,2.598 7.061,2.598l0.685,1.952l-9.179,-1.172l-4.232,-1.633l-4.428,0.856l-4.424,3.224l-4.092,-0.86l3.114,-2.596l-7.554,0.042l0.626,-1.362l5.26,-2.203l7.275,-3.762l1.894,-5.249l-8.006,-29.841c-12.261,-0.023 -21.082,-2.37 -23.632,-2.893c-1.049,-0.216 -2.293,-0.411 -3.756,-0.677l-8.284,29.589c0,0 3.864,7.503 9.462,10.394c2.34,1.208 12.477,5.42 12.477,5.42l1.716,2.553l-16.208,-3.158l-10.286,-1.434l-12.301,2.156l-19.716,6.008l-3.94,-0.873l15.149,-6.194l-10.278,2.288l0.905,-1.949l3.686,-3.328l3.173,-1.082l15.752,-5.604l6.624,-6.344l4.103,-30.36c-7.523,-2.327 -18.127,-7.118 -32.822,-18.18c-7.958,-5.992 -14.367,-12.658 -19.478,-19.588l2.472,0c1.09,0 1.738,-0.545 1.946,-1.634l6.616,-26.074l0.155,0l6.616,26.074c0.156,1.089 0.778,1.634 1.868,1.634l4.592,0c0.831,0 1.453,-0.545 1.868,-1.634l10.274,-31.445l4.281,0c0.623,0 0.934,-0.311 0.934,-0.934l0,-3.347c0,-0.622 -0.311,-0.933 -0.934,-0.934l-14.477,0c-0.675,0.001 -1.012,0.312 -1.012,0.934l0,3.347c0,0.623 0.337,0.934 1.012,0.934l3.503,0l-7.784,26.23l-0.155,0l-6.85,-26.23l3.036,0c0.623,0 0.934,-0.311 0.934,-0.934l0,-3.347c0,-0.622 -0.311,-0.933 -0.934,-0.934l-13.699,0c-0.623,0.001 -0.934,0.312 -0.934,0.934l0,3.347c0,0.623 0.311,0.934 0.934,0.934l3.036,0l-6.85,26.23Zm111.302,-11.519c0.726,-0.001 1.089,-0.338 1.089,-1.012c0,-0.208 0,-0.415 0,-0.623c0,-5.759 -1.505,-10.339 -4.514,-13.737c-3.01,-3.399 -7.148,-5.098 -12.414,-5.098c-5.267,0 -9.717,1.751 -13.349,5.253c-3.632,3.503 -5.448,8.277 -5.448,14.322c0,6.045 1.829,10.857 5.487,14.438c3.658,3.58 8.211,5.37 13.66,5.37c2.387,0 4.631,-0.337 6.732,-1.012c2.102,-0.674 3.814,-1.505 5.137,-2.49c1.323,-0.986 2.348,-1.868 3.075,-2.647c0.726,-0.778 1.206,-1.349 1.44,-1.712c0.233,-0.363 0.35,-0.662 0.35,-0.895c0,-0.234 -0.156,-0.506 -0.467,-0.817l-2.102,-2.102c-0.519,-0.363 -0.986,-0.285 -1.401,0.234c-0.778,1.297 -2.296,2.62 -4.553,3.969c-2.257,1.349 -4.968,2.024 -8.133,2.024c-3.166,0 -6.007,-1.168 -8.523,-3.503c-2.517,-2.335 -3.879,-5.655 -4.086,-9.962l28.02,0Zm-65.147,13.153c-0.674,0.001 -1.011,0.312 -1.011,0.934l0,3.347c0,0.623 0.337,0.934 1.011,0.934l14.866,0c0.675,0 1.012,-0.311 1.012,-0.934l0,-3.347c0,-0.622 -0.337,-0.933 -1.012,-0.934l-4.125,0l0,-13.075c0,-3.633 1.323,-6.876 3.97,-9.73c2.646,-2.853 6.2,-4.28 10.663,-4.28l1.634,0c0.675,-0.001 1.012,-0.338 1.012,-1.012l0,-4.125c0,-0.675 -0.337,-1.012 -1.012,-1.012c-2.646,0 -5.02,0.389 -7.121,1.167c-2.102,0.779 -3.71,1.648 -4.826,2.608c-1.116,0.96 -2.14,2.166 -3.074,3.619c-0.934,1.453 -1.479,2.594 -1.635,3.425l-0.233,0l0,-9.73c0,-0.622 -0.338,-0.933 -1.012,-0.934l-9.107,0c-0.674,0.001 -1.011,0.312 -1.011,0.934l0,3.347c0,0.623 0.337,0.934 1.011,0.934l4.281,0l0,27.864l-4.281,0Zm73.397,0c-0.675,0.001 -1.012,0.312 -1.012,0.934l0,3.347c0,0.623 0.337,0.934 1.012,0.934l14.866,0c0.675,0 1.012,-0.311 1.012,-0.934l0,-3.347c0,-0.622 -0.337,-0.933 -1.012,-0.934l-4.125,0l0,-21.404c0.415,-0.83 0.752,-1.401 1.012,-1.712c2.231,-3.269 5.344,-4.903 9.34,-4.903c2.802,0 4.929,0.83 6.382,2.49c1.453,1.661 2.179,3.996 2.179,7.005l0,20.47c0,2.18 1.116,3.269 3.347,3.269l7.394,0c0.675,0 1.012,-0.311 1.012,-0.934l0,-3.347c0,-0.622 -0.337,-0.933 -1.012,-0.934l-4.359,0l0,-20.08c-0.051,-4.152 -1.245,-7.446 -3.58,-9.885c-2.335,-2.439 -5.578,-3.658 -9.729,-3.658c-5.656,0 -9.833,2.257 -12.531,6.771l-0.234,0l0.156,-5.293c0,-0.622 -0.337,-0.933 -1.012,-0.934l-9.106,0c-0.675,0.001 -1.012,0.312 -1.012,0.934l0,3.347c0,0.623 0.337,0.934 1.012,0.934l4.281,0l0,27.864l-4.281,0Zm71.171,-17.112c0.802,-0.233 1.542,-0.305 2.195,-0.174c2.611,0.525 0.777,0.443 -2.195,0.174Zm-84.792,-0.789c-0.156,-3.217 -1.167,-5.786 -3.035,-7.706c-1.868,-1.919 -4.359,-2.879 -7.472,-2.879c-3.114,0 -5.786,0.882 -8.017,2.646c-2.231,1.764 -3.555,4.41 -3.97,7.939l22.494,0Z" style="fill:#383838;"/></svg>